<?xml version="1.0" encoding="UTF-8" standalone="no"?>
<svg
   xmlns:dc="http://purl.org/dc/elements/1.1/"
   xmlns:cc="http://creativecommons.org/ns#"
   xmlns:rdf="http://www.w3.org/1999/02/22-rdf-syntax-ns#"
   xmlns:svg="http://www.w3.org/2000/svg"
   xmlns="http://www.w3.org/2000/svg"
   xmlns:sodipodi="http://sodipodi.sourceforge.net/DTD/sodipodi-0.dtd"
   xmlns:inkscape="http://www.inkscape.org/namespaces/inkscape"
   id="Camada_1"
   data-name="Camada 1"
   viewBox="0 0 471.43 152.55"
   version="1.1"
   sodipodi:docname="logo.svg"
   inkscape:version="0.92.4 5da689c313, 2019-01-14">
  <metadata
     id="metadata981">
    <rdf:RDF>
      <cc:Work
         rdf:about="">
        <dc:format>image/svg+xml</dc:format>
        <dc:type
           rdf:resource="http://purl.org/dc/dcmitype/StillImage" />
      </cc:Work>
    </rdf:RDF>
  </metadata>
  <sodipodi:namedview
     pagecolor="#ffffff"
     bordercolor="#666666"
     borderopacity="1"
     objecttolerance="10"
     gridtolerance="10"
     guidetolerance="10"
     inkscape:pageopacity="0"
     inkscape:pageshadow="2"
     inkscape:window-width="1920"
     inkscape:window-height="1027"
     id="namedview979"
     showgrid="false"
     inkscape:zoom="2.8827186"
     inkscape:cx="235.715"
     inkscape:cy="76.275002"
     inkscape:window-x="0"
     inkscape:window-y="27"
     inkscape:window-maximized="1"
     inkscape:current-layer="Camada_1" />
  <defs
     id="defs948">
    <style
       id="style946">.cls-1{fill:#1d1d1b;}.cls-2{fill:#bfad88;}</style>
  </defs>
  <title
     id="title950">poopchico</title>
  <path
     class="cls-1"
     d="M236.6,344.21H209.51l-4,10.73H185l28.63-67.12h20.49l27.67,67.12H240.53Zm-5.27-14.55-8-21.92-8.23,21.92Z"
     transform="translate(-184.99 -220.97)"
     id="path952"
     style="fill:#54596f;fill-opacity:0.94117647" />
  <path
     class="cls-1"
     d="M403.67,321.33c0,20.2-14.65,33.61-36.77,33.61H338.18V287.82h29.39C389.31,287.82,403.67,301.13,403.67,321.33Zm-20.3.19c0-10.82-6.61-18-16.18-18h-9.1v35.81h10.06C377.24,339.33,383.37,332.25,383.37,321.52Z"
     transform="translate(-184.99 -220.97)"
     id="path954"
     style="fill:#54596f;fill-opacity:0.94117647" />
  <path
     class="cls-1"
     d="M307.59,354.94l-8.9-18.1H288.16v18.1H268.24V287.82h31.31c18,0,28.34,8.62,28.34,23.84,0,10-4,17.24-11.3,21.35l13.6,21.93Zm-19.43-33.42h11.39c5.94,0,9.38-3.25,9.38-9.29,0-5.83-3.44-9.09-9.38-9.09H288.16Z"
     transform="translate(-184.99 -220.97)"
     id="path956"
     style="fill:#54596f;fill-opacity:0.94117647" />
  <path
     class="cls-2"
     d="M467.43,329.18c0,16-9.29,26.43-23.65,26.43a18.42,18.42,0,0,1-14.74-6.7v24.6H409.69V302.85H429v6a17.76,17.76,0,0,1,14.26-6.7C457.86,302.18,467.43,312.9,467.43,329.18Zm-19.53-.47c0-6.9-3.73-11.59-9.48-11.59-5.55,0-9.38,4.69-9.38,11.59s3.83,11.58,9.38,11.58C444.17,340.29,447.9,335.6,447.9,328.71Z"
     transform="translate(-184.99 -220.97)"
     id="path958"
     style="fill:#ffffff;fill-opacity:1" />
  <path
     class="cls-2"
     d="M529,328.9c0,16.08-11.39,26.71-28.91,26.71s-29-10.63-29-26.71,11.49-26.72,29-26.72S529,312.71,529,328.9Zm-38.39.19c0,7,3.73,11.58,9.48,11.58s9.38-4.59,9.38-11.58-3.73-11.59-9.38-11.59S490.6,322.19,490.6,329.09Z"
     transform="translate(-184.99 -220.97)"
     id="path960"
     style="fill:#ffffff;fill-opacity:1" />
  <path
     class="cls-2"
     d="M590.55,328.9c0,16.08-11.39,26.71-28.91,26.71s-29-10.63-29-26.71,11.49-26.72,29-26.72S590.55,312.71,590.55,328.9Zm-38.39.19c0,7,3.73,11.58,9.48,11.58s9.38-4.59,9.38-11.58-3.73-11.59-9.38-11.59S552.16,322.19,552.16,329.09Z"
     transform="translate(-184.99 -220.97)"
     id="path962"
     style="fill:#ffffff;fill-opacity:1" />
  <path
     class="cls-2"
     d="M656.42,329.18c0,16-9.29,26.43-23.65,26.43a18.42,18.42,0,0,1-14.74-6.7v24.6H598.68V302.85H618v6a17.76,17.76,0,0,1,14.26-6.7C646.85,302.18,656.42,312.9,656.42,329.18Zm-19.53-.47c0-6.9-3.74-11.59-9.48-11.59-5.55,0-9.38,4.69-9.38,11.59s3.83,11.58,9.38,11.58C633.15,340.29,636.89,335.6,636.89,328.71Z"
     transform="translate(-184.99 -220.97)"
     id="path964"
     style="fill:#ffffff;fill-opacity:1" />
  <path
     class="cls-2"
     d="M507.72,245.91c1.78,2.32,1.61,3.52-.7,5.43-2.63,2.18-5.12,4.49-6.49,7.73-1.18,2.82-.85,4.78,1.36,6.86,1.61,1.51,3.45,2.78,5.09,4.27,3.8,3.45,4.53,7.24,2.23,11.82a37.12,37.12,0,0,1-3,4.69,2.77,2.77,0,0,1-3.72.67,2.65,2.65,0,0,1-.94-3.64c.71-1.31,1.68-2.47,2.37-3.79,1.44-2.75,1.13-4-1.27-6-1.27-1.05-2.56-2.08-3.83-3.13-5.4-4.48-5.88-10-2.53-15.87a32.7,32.7,0,0,1,8.32-9Z"
     transform="translate(-184.99 -220.97)"
     id="path966"
     style="fill:#ffffff;fill-opacity:1" />
  <path
     class="cls-2"
     d="M550.14,221c1.77,2.31,1.6,3.52-.7,5.42-2.64,2.18-5.13,4.49-6.49,7.74-1.18,2.81-.86,4.78,1.36,6.86,1.61,1.51,3.45,2.78,5.08,4.26,3.8,3.45,4.53,7.25,2.23,11.83a35.85,35.85,0,0,1-3,4.68,2.77,2.77,0,0,1-3.73.68,2.67,2.67,0,0,1-.94-3.65c.72-1.3,1.69-2.47,2.37-3.78,1.44-2.76,1.14-4-1.26-6-1.27-1.05-2.57-2.07-3.84-3.12-5.39-4.49-5.87-10-2.52-15.87a32.39,32.39,0,0,1,8.31-9Z"
     transform="translate(-184.99 -220.97)"
     id="path968"
     style="fill:#ffffff;fill-opacity:1" />
  <path
     class="cls-2"
     d="M468.91,269.78A3.1,3.1,0,1,1,469,276a3.07,3.07,0,0,1-3.16-3.05A3,3,0,0,1,468.91,269.78Z"
     transform="translate(-184.99 -220.97)"
     id="path970"
     style="fill:#ffffff;fill-opacity:1" />
  <path
     class="cls-2"
     d="M584.33,249a3.1,3.1,0,1,1-3.06,3.14A3,3,0,0,1,584.33,249Z"
     transform="translate(-184.99 -220.97)"
     id="path972"
     style="fill:#ffffff;fill-opacity:1" />
  <path
     class="cls-2"
     d="M525.81,269.78a3.1,3.1,0,1,1,.1,6.2,3.1,3.1,0,0,1-.1-6.2Z"
     transform="translate(-184.99 -220.97)"
     id="path974"
     style="fill:#ffffff;fill-opacity:1" />
  <path
     class="cls-2"
     d="M566.38,279.08a3.1,3.1,0,1,1,.11,6.19,3.1,3.1,0,1,1-.11-6.19Z"
     transform="translate(-184.99 -220.97)"
     id="path976"
     style="fill:#ffffff;fill-opacity:1" />
</svg>
