<?xml version="1.0" encoding="UTF-8" standalone="no"?>
<svg
   xmlns:dc="http://purl.org/dc/elements/1.1/"
   xmlns:cc="http://creativecommons.org/ns#"
   xmlns:rdf="http://www.w3.org/1999/02/22-rdf-syntax-ns#"
   xmlns:svg="http://www.w3.org/2000/svg"
   xmlns="http://www.w3.org/2000/svg"
   xmlns:sodipodi="http://sodipodi.sourceforge.net/DTD/sodipodi-0.dtd"
   xmlns:inkscape="http://www.inkscape.org/namespaces/inkscape"
   height="389pt"
   viewBox="-3 0 389 389.12019"
   width="389pt"
   version="1.1"
   id="svg28"
   sodipodi:docname="poop_sad.svg"
   inkscape:version="0.92.4 5da689c313, 2019-01-14">
  <metadata
     id="metadata34">
    <rdf:RDF>
      <cc:Work
         rdf:about="">
        <dc:format>image/svg+xml</dc:format>
        <dc:type
           rdf:resource="http://purl.org/dc/dcmitype/StillImage" />
      </cc:Work>
    </rdf:RDF>
  </metadata>
  <defs
     id="defs32" />
  <sodipodi:namedview
     pagecolor="#ffffff"
     bordercolor="#666666"
     borderopacity="1"
     objecttolerance="10"
     gridtolerance="10"
     guidetolerance="10"
     inkscape:pageopacity="0"
     inkscape:pageshadow="2"
     inkscape:window-width="1014"
     inkscape:window-height="1027"
     id="namedview30"
     showgrid="false"
     inkscape:zoom="1.2869707"
     inkscape:cx="264.17383"
     inkscape:cy="282.39323"
     inkscape:window-x="0"
     inkscape:window-y="27"
     inkscape:window-maximized="0"
     inkscape:current-layer="svg28" />
  <path
     d="m324.328125 232.105469h-4.867187c.925781-3.257813 1.453124-20.339844 1.453124-23.890625 0-20.738282-16.8125-37.546875-37.546874-37.546875h-16.769532c3.160156-4.703125 5.035156-10.289063 5.035156-16.320313 0-16.554687-13.847656-29.972656-30.933593-29.972656h-22.683594c-53.617187-11.988281-57.742187-59.945312-57.742187-59.945312-35.589844 17.246093-45.546876 45.425781-48.355469 59.945312l-1.136719 21.121094c0 9.617187 3.621094 18.390625 9.59375 25.171875h-21.328125c-20.734375 0-37.546875 16.8125-37.546875 37.546875 0 3.554687.527344 20.632812 1.449219 23.894531h-4.863281c-28.273438 0-51.199219 29.75-51.199219 58.027344 0 28.273437 22.925781 58.023437 51.199219 58.023437h17.066406v17.070313c0 9.425781 7.640625 17.066406 17.066406 17.066406s17.066406-7.640625 17.066406-17.066406v-17.070313h215.042969c28.273437 0 51.199219-29.75 51.199219-58.023437 0-28.277344-22.925782-58.03125-51.199219-58.03125zm0 0"
     fill="#f99"
     id="path2"
     style="fill:#bfad88;fill-opacity:1" />
  <path
     d="m324.328125 232.105469v-6.824219h-4.867187v6.824219l6.570312 1.863281c.289062-1.046875.394531-1.832031.527344-2.792969.417968-3.230469.683594-7.976562.882812-12.527343.195313-4.542969.296875-8.660157.296875-10.433594-.003906-24.511719-19.863281-44.371094-44.375-44.375h-16.769531v6.828125l5.667969 3.808593c3.859375-5.730468 6.199219-12.671874 6.195312-20.128906.007813-10.207031-4.292969-19.484375-11.132812-26.097656-6.835938-6.628906-16.28125-10.703125-26.625-10.703125h-22.683594v6.828125l1.492187-6.664062c-12.480468-2.796876-21.792968-7.585938-28.9375-13.148438-10.6875-8.332031-16.574218-18.578125-19.808593-26.820312-1.613281-4.113282-2.550781-7.703126-3.074219-10.207032-.257812-1.253906-.417969-2.234375-.511719-2.871094l-.085937-.695312-.015625-.136719-.832031.082031.832031-.074218v-.007813l-.832031.082031.832031-.074218c-.191407-2.226563-1.484375-4.242188-3.429688-5.347656-1.945312-1.105469-4.339843-1.183594-6.351562-.210938-18.894531 9.140625-31.296875 21.425781-39.1875 33.375-7.902344 11.949219-11.359375 23.5-12.894531 31.421875l-.113282.929687-1.136718 21.117188-.011719.367188c-.003907 11.351562 4.304687 21.757812 11.296875 29.683593l5.125-4.507812v-6.828125h-21.324219c-24.507813.003906-44.367187 19.863281-44.375 44.375.003906 2.015625.136719 7.136718.390625 12.382812.125 2.617188.28125 5.230469.46875 7.476563.097656 1.125.199219 2.160156.324219 3.101562.132812.960938.242187 1.746094.527343 2.792969l6.566407-1.863281v-6.824219h-4.863281c-16.621094.019531-31.1875 8.699219-41.417969 20.832031-10.253907 12.183594-16.574219 28.03125-16.6093752 44.019531.0351562 15.988282 6.3554682 31.839844 16.6093752 44.023438 10.230469 12.132812 24.796875 20.808594 41.417969 20.832031h10.242187v10.238281c.003906 13.199219 10.691406 23.890626 23.890625 23.894532 13.199219-.003906 23.890625-10.695313 23.894531-23.894532v-10.238281h208.214844c16.621094-.023437 31.1875-8.699219 41.417969-20.832031 10.253906-12.183594 16.574218-28.03125 16.605468-44.023438-.03125-15.988281-6.351562-31.835937-16.605468-44.019531-10.230469-12.132812-24.796875-20.8125-41.417969-20.832031v13.652344c11.65625-.019532 22.6875 6.175781 30.988281 15.988281 8.277344 9.761719 13.417969 22.925781 13.382813 35.214844.035156 12.285156-5.105469 25.453125-13.382813 35.210937-8.300781 9.8125-19.332031 16.007813-30.988281 15.988282h-215.042969c-1.796875 0-3.554687.726562-4.824218 1.996093-1.269532 1.269531-2 3.03125-2 4.828125v17.066406c-.011719 5.65625-4.585938 10.230469-10.242188 10.242188-5.652344-.011719-10.226562-4.585938-10.238281-10.242188v-17.066406c0-1.796875-.730469-3.558594-2-4.828125s-3.03125-2-4.828125-2h-17.066406c-11.65625.023438-22.6875-6.175781-30.988282-15.988281-8.277344-9.757812-13.417968-22.921875-13.382812-35.210938-.035156-12.289062 5.105468-25.453124 13.382812-35.214843 8.300782-9.808594 19.332032-16.003907 30.988282-15.984375h4.863281c2.144531 0 4.152343-1 5.449219-2.707032 1.292968-1.710937 1.703124-3.917968 1.121093-5.976562l-.867187.242188.882812-.191407-.015625-.050781-.871093.242188.882812-.191407c-.074219-.261719-.296875-1.980469-.441406-3.945312-.488282-6.03125-.769532-15.871094-.765625-18.136719.003906-8.507812 3.429687-16.144531 9-21.722656 5.578125-5.570313 13.214843-8.996094 21.722656-9h21.324219c2.675781 0 5.117187-1.574219 6.222656-4.015625 1.101562-2.4375.667969-5.3125-1.097656-7.324219-4.945313-5.628906-7.886719-12.777344-7.890625-20.660156h-6.828125l6.816406.367187 1.136719-21.121093-6.816407-.367188 6.703126 1.300781c1.273437-6.601562 4.203124-16.402343 10.875-26.480469 6.691406-10.085937 17.058593-20.515624 33.757812-28.621093l-2.976562-6.144531-6.804688.585937c.070312.609375 1.191406 13.492187 9.644531 28.289063 4.234375 7.382812 10.34375 15.234374 19.0625 22.03125 8.710938 6.800781 20.019531 12.503906 34.351563 15.703124l1.488281.164063h22.683594c6.742187.003906 12.761719 2.636719 17.125 6.855469 4.355469 4.234375 6.976562 9.941406 6.984375 16.292968-.003906 4.601563-1.417969 8.84375-3.878906 12.511719-1.410157 2.09375-1.546876 4.789063-.359376 7.015625 1.1875 2.230469 3.5 3.617188 6.023438 3.617188h16.773438c8.503906.003906 16.140624 3.429687 21.722656 9 5.570312 5.578125 8.992187 13.214844 8.996094 21.722656.003906 1.535156-.128907 6.730469-.371094 11.726562-.121094 2.507813-.269532 4.996094-.4375 6.980469-.082032.988281-.171875 1.851563-.253906 2.484375l-.109376.730469-.03125.160156.886719.195313-.875-.246094-.015625.050781.890625.195313-.875-.246094c-.585937 2.058594-.171875 4.265625 1.121094 5.976562 1.292969 1.707032 3.300781 2.707032 5.445313 2.707032h4.867187zm0 0"
     fill="#54596e"
     id="path4" />
  <path
     d="m116.113281 211.625c0 15.082031 12.226563 27.308594 27.308594 27.308594 15.078125 0 27.304687-12.226563 27.304687-27.308594zm0 0"
     fill="#fff"
     id="path6" />
  <path
     d="m116.113281 211.625h-6.828125c.007813 18.855469 15.28125 34.128906 34.136719 34.136719 18.851563-.007813 34.125-15.28125 34.132813-34.136719 0-1.796875-.730469-3.554688-2-4.828125-1.269532-1.269531-3.03125-1.996094-4.828126-1.996094h-54.613281c-1.796875 0-3.554687.726563-4.828125 1.996094-1.269531 1.273437-2 3.03125-2 4.828125h6.828125v6.828125h54.613281v-6.828125h-6.828124c-.019532 11.308594-9.171876 20.460938-20.476563 20.480469-11.308594-.019531-20.460937-9.171875-20.480469-20.480469h-6.828125v6.828125zm0 0"
     fill="#54596e"
     id="path8" />
  <path
     d="m211.6875 211.625c0 15.082031 12.226562 27.308594 27.304688 27.308594 15.082031 0 27.308593-12.226563 27.308593-27.308594zm0 0"
     fill="#fff"
     id="path10" />
  <path
     d="m211.6875 211.625h-6.828125c.003906 18.855469 15.28125 34.128906 34.132813 34.136719 18.855468-.007813 34.128906-15.28125 34.132812-34.136719 0-1.796875-.726562-3.554688-2-4.828125-1.269531-1.269531-3.027344-1.996094-4.824219-1.996094h-54.613281c-1.796875 0-3.558594.726563-4.828125 1.996094-1.269531 1.273437-2 3.03125-2 4.828125h6.828125v6.828125h54.613281v-6.828125h-6.828125c-.019531 11.308594-9.171875 20.460938-20.480468 20.480469-11.304688-.019531-20.457032-9.171875-20.480469-20.480469h-6.824219v6.828125zm0 0"
     fill="#54596e"
     id="path12" />
  <g
     fill="#f99"
     id="g24">
    <path
       d="m368.699219 187.734375c0 5.65625-4.582031 10.238281-10.238281 10.238281s-10.242188-4.582031-10.242188-10.238281 4.585938-10.242187 10.242188-10.242187 10.238281 4.585937 10.238281 10.242187zm0 0"
       id="path14"
       style="fill:#54596e;fill-opacity:1" />
    <path
       d="m61.5 153.601562c0 5.652344-4.585938 10.238282-10.238281 10.238282-5.65625 0-10.242188-4.585938-10.242188-10.238282 0-5.65625 4.585938-10.242187 10.242188-10.242187 5.652343 0 10.238281 4.585937 10.238281 10.242187zm0 0"
       id="path16"
       style="fill:#54596e;fill-opacity:1" />
    <path
       d="m259.472656 30.71875c0 5.65625-4.582031 10.242188-10.238281 10.242188s-10.242187-4.585938-10.242187-10.242188c0-5.652344 4.585937-10.238281 10.242187-10.238281s10.238281 4.585937 10.238281 10.238281zm0 0"
       id="path18"
       style="fill:#54596e;fill-opacity:1" />
    <path
       d="m218.542969 1.273438c-.234375.175781-6.070313 4.332031-12.125 10.949218-3.027344 3.320313-6.125 7.265625-8.570313 11.796875-2.425781 4.519531-4.257812 9.714844-4.269531 15.4375-.0625 6.546875 2.695313 13.523438 8.445313 19.179688 4.441406 4.375 9.402343 7.378906 12.738281 10.335937 1.671875 1.449219 2.898437 2.808594 3.609375 3.996094.707031 1.214844 1.007812 2.160156 1.03125 3.566406 0 1.261719-.316406 3.019532-1.429688 5.484375-1.113281 2.457031-3.03125 5.566407-6.011718 9.289063-2.355469 2.945312-1.875 7.242187 1.066406 9.597656 2.945312 2.355469 7.242187 1.875 9.597656-1.066406 3.492188-4.375 6.042969-8.355469 7.78125-12.179688 1.730469-3.816406 2.648438-7.53125 2.648438-11.125.019531-3.996094-1.199219-7.691406-3-10.625-2.71875-4.4375-6.390626-7.398437-9.746094-10.007812-3.382813-2.574219-6.558594-4.824219-8.628906-6.917969-3.53125-3.628906-4.382813-6.445313-4.445313-9.523437-.011719-2.695313.921875-5.792969 2.636719-8.96875 2.542968-4.757813 6.761718-9.464844 10.332031-12.8125 1.785156-1.679688 3.394531-3.039063 4.542969-3.957032l1.332031-1.039062.332031-.246094.074219-.054688c3.066406-2.191406 3.777344-6.453124 1.585937-9.523437-2.195312-3.066406-6.460937-3.777344-9.527343-1.585937zm0 0"
       id="path20"
       style="stroke:none;stroke-opacity:1;fill:#54596e;fill-opacity:1" />
    <path
       d="m300.460938 49.058594c-.234376.175781-6.070313 4.332031-12.125 10.953125-3.023438 3.320312-6.121094 7.261719-8.566407 11.792969-2.429687 4.523437-4.257812 9.714843-4.269531 15.441406-.066406 6.542968 2.691406 13.523437 8.445312 19.175781 4.441407 4.375 9.402344 7.378906 12.734376 10.335937 1.675781 1.449219 2.902343 2.808594 3.609374 4 .710938 1.210938 1.011719 2.160157 1.03125 3.566407 0 1.261719-.3125 3.015625-1.429687 5.484375-1.109375 2.453125-3.027344 5.5625-6.007813 9.289062-2.355468 2.941406-1.878906 7.238282 1.066407 9.59375 2.941406 2.355469 7.238281 1.878906 9.59375-1.066406 3.492187-4.371094 6.042969-8.355469 7.78125-12.179688 1.734375-3.8125 2.648437-7.527343 2.648437-11.121093.019532-4-1.199218-7.691407-2.996094-10.628907-2.71875-4.4375-6.394531-7.394531-9.75-10.003906-3.378906-2.578125-6.554687-4.824218-8.625-6.921875-3.53125-3.625-4.382812-6.445312-4.449218-9.523437-.007813-2.695313.921875-5.792969 2.640625-8.964844 2.542969-4.761719 6.757812-9.464844 10.328125-12.816406 1.785156-1.679688 3.398437-3.039063 4.546875-3.957032l1.328125-1.035156.335937-.25.070313-.050781c3.070312-2.191406 3.78125-6.457031 1.589844-9.523437-2.199219-3.070313-6.460938-3.78125-9.53125-1.589844zm0 0"
       id="path22"
       style="fill:#54596e;fill-opacity:1" />
  </g>
  <path
     d="m122.941406 279.894531h136.53125c3.769532 0 6.828125-3.058593 6.828125-6.828125 0-3.769531-3.058593-6.828125-6.828125-6.828125h-136.53125c-3.769531 0-6.828125 3.058594-6.828125 6.828125 0 3.769532 3.058594 6.828125 6.828125 6.828125"
     fill="#54596e"
     id="path26" />
</svg>
